<?xml version="1.0" standalone="no"?>
<!DOCTYPE svg PUBLIC "-//W3C//DTD SVG 20010904//EN"
 "http://www.w3.org/TR/2001/REC-SVG-20010904/DTD/svg10.dtd">
<svg version="1.0" xmlns="http://www.w3.org/2000/svg"
 width="200.000000pt" height="200.000000pt" viewBox="0 0 200.000000 200.000000"
 preserveAspectRatio="xMidYMid meet">

<g transform="translate(0.000000,200.000000) scale(0.100000,-0.100000)"
fill="#000000" stroke="none">
<path d="M995 1449 c-4 -6 -14 -8 -24 -4 -13 5 -14 4 -3 -6 10 -11 15 -10 29
4 10 9 14 17 11 17 -4 0 -10 -5 -13 -11z"/>
<path d="M920 1442 c0 -7 -10 -13 -22 -13 -19 -1 -20 -2 -4 -6 20 -5 44 12 33
24 -4 3 -7 1 -7 -5z"/>
<path d="M1040 1439 c0 -5 9 -9 20 -9 11 0 20 2 20 4 0 2 -9 6 -20 9 -11 3
-20 1 -20 -4z"/>
<path d="M1113 1420 c2 -8 12 -16 23 -17 13 -2 15 -1 4 4 -8 3 -19 11 -23 17
-6 7 -7 6 -4 -4z"/>
<path d="M838 1388 c-10 -10 -14 -18 -9 -18 10 0 36 29 30 34 -2 1 -12 -6 -21
-16z"/>
<path d="M974 1355 c5 -18 2 -25 -9 -25 -8 0 -15 9 -15 20 0 11 -7 20 -15 20
-18 0 -20 -27 -3 -32 6 -2 8 -10 4 -16 -10 -17 -26 -15 -26 3 0 8 -6 15 -14
15 -23 0 -28 -18 -10 -28 10 -6 14 -14 9 -22 -5 -8 -10 -9 -18 -1 -15 15 -37
14 -37 -3 0 -7 10 -16 22 -20 18 -4 20 -8 11 -17 -9 -9 -16 -9 -26 -1 -15 13
-27 6 -27 -15 0 -14 34 -14 58 0 8 5 12 2 12 -8 0 -9 -4 -14 -9 -10 -5 3 -12
1 -16 -5 -3 -5 -15 -10 -26 -10 -11 0 -19 -7 -19 -16 0 -10 7 -14 22 -12 11 2
23 -3 25 -9 3 -8 -4 -13 -16 -13 -12 0 -21 -6 -21 -15 0 -17 25 -20 35 -5 7
12 25 4 25 -11 0 -5 -7 -9 -15 -9 -8 0 -15 -9 -15 -20 0 -25 16 -26 29 -2 7
13 13 14 21 6 8 -8 9 -14 1 -18 -16 -10 -14 -36 3 -36 7 0 16 10 20 22 4 18 8
20 17 11 9 -9 9 -16 1 -26 -13 -15 -6 -27 16 -27 9 0 13 7 9 20 -3 13 0 20 8
20 8 0 15 -9 17 -20 4 -27 23 -26 23 2 0 12 6 23 13 26 7 2 12 -5 12 -17 0
-12 6 -21 15 -21 17 0 20 25 5 35 -12 7 -4 25 11 25 5 0 9 -6 9 -14 0 -21 20
-30 33 -16 9 9 8 15 -7 25 -10 8 -15 19 -11 25 5 8 13 6 26 -6 17 -16 19 -16
25 0 9 23 0 29 -36 28 -18 0 -28 3 -24 9 3 6 9 8 12 5 3 -3 12 -1 19 6 11 9
16 9 23 -3 7 -10 12 -11 21 -2 14 14 2 36 -17 29 -8 -3 -14 1 -14 9 0 9 9 15
23 15 16 0 18 3 8 9 -11 7 -11 10 0 15 8 3 3 4 -10 3 -13 -1 -26 4 -28 11 -3
7 4 12 16 12 12 0 21 6 21 15 0 18 -27 20 -32 3 -2 -6 -10 -8 -16 -4 -17 10
-15 26 2 26 21 0 30 20 16 33 -9 9 -15 8 -25 -7 -8 -10 -19 -15 -25 -11 -8 5
-7 12 4 24 17 18 12 31 -11 31 -7 0 -13 -9 -13 -20 0 -22 -15 -27 -26 -9 -3 6
0 15 7 20 10 6 11 11 2 20 -13 13 -35 3 -31 -14 2 -7 -2 -14 -7 -17 -6 -3 -11
5 -13 18 -2 12 -10 22 -19 22 -11 0 -14 -6 -9 -25z m26 -35 c0 -5 -4 -10 -10
-10 -5 0 -10 5 -10 10 0 6 5 10 10 10 6 0 10 -4 10 -10z m40 0 c0 -5 -7 -10
-16 -10 -8 0 -12 5 -9 10 3 6 10 10 16 10 5 0 9 -4 9 -10z m-75 -10 c-3 -5
-10 -10 -16 -10 -5 0 -9 5 -9 10 0 6 7 10 16 10 8 0 12 -4 9 -10z m105 -10 c0
-5 -2 -10 -4 -10 -3 0 -8 5 -11 10 -3 6 -1 10 4 10 6 0 11 -4 11 -10z m-140
-10 c0 -5 -4 -10 -10 -10 -5 0 -10 5 -10 10 0 6 5 10 10 10 6 0 10 -4 10 -10z
m139 -19 c25 -24 31 -37 31 -71 0 -124 -180 -137 -197 -14 -13 97 94 152 166
85z m31 9 c0 -5 -4 -10 -10 -10 -5 0 -10 5 -10 10 0 6 5 10 10 10 6 0 10 -4
10 -10z m-190 -14 c0 -3 -4 -8 -10 -11 -5 -3 -10 -1 -10 4 0 6 5 11 10 11 6 0
10 -2 10 -4z m210 -22 c0 -8 -4 -12 -10 -9 -5 3 -10 10 -10 16 0 5 5 9 10 9 6
0 10 -7 10 -16z m10 -34 c0 -5 -4 -10 -10 -10 -5 0 -10 5 -10 10 0 6 5 10 10
10 6 0 10 -4 10 -10z m-240 -20 c0 -5 -4 -10 -10 -10 -5 0 -10 5 -10 10 0 6 5
10 10 10 6 0 10 -4 10 -10z m240 -20 c0 -5 -4 -10 -10 -10 -5 0 -10 5 -10 10
0 6 5 10 10 10 6 0 10 -4 10 -10z m-230 -20 c0 -5 -4 -10 -10 -10 -5 0 -10 5
-10 10 0 6 5 10 10 10 6 0 10 -4 10 -10z m20 -30 c0 -5 -4 -10 -10 -10 -5 0
-10 5 -10 10 0 6 5 10 10 10 6 0 10 -4 10 -10z m170 -10 c0 -5 -4 -10 -10 -10
-5 0 -10 5 -10 10 0 6 5 10 10 10 6 0 10 -4 10 -10z m-145 -10 c3 -5 1 -10 -4
-10 -6 0 -11 5 -11 10 0 6 2 10 4 10 3 0 8 -4 11 -10z m115 -10 c0 -5 -7 -10
-16 -10 -8 0 -12 5 -9 10 3 6 10 10 16 10 5 0 9 -4 9 -10z m-80 -10 c0 -5 -4
-10 -10 -10 -5 0 -10 5 -10 10 0 6 5 10 10 10 6 0 10 -4 10 -10z m40 0 c0 -5
-4 -10 -10 -10 -5 0 -10 5 -10 10 0 6 5 10 10 10 6 0 10 -4 10 -10z"/>
<path d="M1182 1354 c10 -10 20 -16 22 -13 3 3 -5 11 -17 18 -21 13 -21 12 -5
-5z"/>
<path d="M790 1338 c0 -9 -6 -19 -12 -21 -10 -4 -10 -6 0 -6 14 -1 28 26 18
36 -3 4 -6 -1 -6 -9z"/>
<path d="M1223 1301 c1 -14 9 -26 17 -28 10 -3 11 -2 4 4 -7 4 -14 17 -17 28
-5 16 -5 15 -4 -4z"/>
<path d="M757 1260 c-3 -11 -1 -20 4 -20 5 0 9 9 9 20 0 11 -2 20 -4 20 -2 0
-6 -9 -9 -20z"/>
<path d="M747 1201 c6 -7 9 -20 6 -27 -3 -8 -3 -14 0 -14 14 0 14 30 -1 41
-14 11 -15 11 -5 0z"/>
<path d="M1230 1140 c0 -11 2 -20 4 -20 2 0 6 9 9 20 3 11 1 20 -4 20 -5 0 -9
-9 -9 -20z"/>
<path d="M768 1103 c5 -21 7 -23 10 -9 2 10 0 22 -6 28 -6 6 -7 0 -4 -19z"/>
<path d="M1203 1075 c-3 -9 -3 -19 1 -22 3 -4 6 1 6 10 0 8 6 18 13 20 9 4 9
6 -1 6 -7 1 -15 -6 -19 -14z"/>
<path d="M791 1057 c2 -1 13 -9 24 -17 19 -14 19 -14 6 3 -7 9 -18 17 -24 17
-6 0 -8 -1 -6 -3z"/>
<path d="M1145 1009 c-4 -6 -5 -12 -2 -15 2 -3 7 2 10 11 7 17 1 20 -8 4z"/>
<path d="M860 993 c8 -3 19 -11 23 -17 6 -7 7 -6 4 4 -2 8 -12 16 -23 17 -13
2 -15 1 -4 -4z"/>
<path d="M1077 973 c-4 -3 -7 -11 -7 -17 0 -7 3 -7 8 0 4 7 16 14 27 17 19 5
19 5 -1 6 -11 0 -24 -2 -27 -6z"/>
<path d="M920 966 c0 -2 9 -6 20 -9 11 -3 20 -1 20 4 0 5 -9 9 -20 9 -11 0
-20 -2 -20 -4z"/>
<path d="M999 952 c-11 -14 -11 -15 0 -5 7 6 20 9 27 6 8 -3 14 -3 14 0 0 14
-30 14 -41 -1z"/>
<path d="M766 595 c8 -37 14 -45 14 -19 0 10 -5 26 -10 34 -8 11 -9 7 -4 -15z"/>
<path d="M840 570 c0 -16 2 -30 4 -30 2 0 6 14 8 30 3 17 1 30 -4 30 -4 0 -8
-13 -8 -30z"/>
<path d="M982 570 c0 -19 2 -27 5 -17 2 9 2 25 0 35 -3 9 -5 1 -5 -18z"/>
<path d="M1131 568 c2 -28 2 -29 6 -8 3 14 10 28 17 32 7 5 5 8 -6 8 -14 0
-18 -8 -17 -32z"/>
<path d="M1221 568 c2 -28 2 -29 6 -8 3 14 10 28 17 32 7 5 5 8 -6 8 -14 0
-18 -8 -17 -32z"/>
<path d="M752 570 c0 -14 2 -19 5 -12 2 6 2 18 0 25 -3 6 -5 1 -5 -13z"/>
</g>
</svg>
